<?xml version="1.0" encoding="utf-8"?>
<!-- Generator: Adobe Illustrator 16.0.0, SVG Export Plug-In . SVG Version: 6.00 Build 0)  -->
<!DOCTYPE svg PUBLIC "-//W3C//DTD SVG 1.1//EN" "http://www.w3.org/Graphics/SVG/1.1/DTD/svg11.dtd">
<svg version="1.1" id="Layer_1" xmlns="http://www.w3.org/2000/svg" xmlns:xlink="http://www.w3.org/1999/xlink" x="0px" y="0px"
	 width="108px" height="48px" viewBox="0 0 108 48" enable-background="new 0 0 108 48" xml:space="preserve">
<title>robotisdream-illustration</title>
<desc>Created with Sketch.</desc>
<g id="robotisdream-illustration">
	<g id="robotisdream" transform="translate(2.000000, 2.000000)">
		<path fill="#C7CFE2" stroke="#737C97" stroke-width="1.5" stroke-miterlimit="10" enable-background="new    " d="M101.584,22.375
			c0,7.387-5.732,13.375-12.801,13.375H16.76c-7.07,0-12.801-5.988-12.801-13.375l0,0C3.958,14.988,9.69,9,16.76,9h72.023
			C95.852,9,101.584,14.988,101.584,22.375L101.584,22.375z"/>
		<path fill="#FFFFFF" stroke="#737C97" stroke-width="1.5" stroke-miterlimit="10" enable-background="new    " d="M102.828,19.625
			c0,7.091-5.643,12.84-12.604,12.84H19.316c-6.96,0-12.603-5.749-12.603-12.84l0,0c0-7.091,5.643-12.84,12.603-12.84h70.908
			C97.186,6.785,102.828,12.534,102.828,19.625L102.828,19.625z"/>
		<g>
			<g>
				<g enable-background="new    ">
					<circle fill="#FFFFFF" cx="88.209" cy="19.375" r="7.75"/>
					<path fill="#737C97" d="M88.209,27.625c-4.549,0-8.25-3.701-8.25-8.25s3.701-8.25,8.25-8.25s8.25,3.701,8.25,8.25
						S92.758,27.625,88.209,27.625z M88.209,12.125c-3.998,0-7.25,3.252-7.25,7.25c0,3.998,3.252,7.25,7.25,7.25
						s7.25-3.252,7.25-7.25C95.459,15.377,92.207,12.125,88.209,12.125z"/>
				</g>
				<circle fill="#737C97" enable-background="new    " cx="86.792" cy="20.708" r="6.408"/>
			</g>
		</g>
		<g>
			<g>
				<g enable-background="new    ">
					<circle fill="#FFFFFF" cx="66.292" cy="19.375" r="7.75"/>
					<path fill="#737C97" d="M66.292,27.625c-4.549,0-8.25-3.701-8.25-8.25s3.701-8.25,8.25-8.25s8.25,3.701,8.25,8.25
						S70.841,27.625,66.292,27.625z M66.292,12.125c-3.998,0-7.25,3.252-7.25,7.25c0,3.998,3.252,7.25,7.25,7.25
						s7.25-3.252,7.25-7.25C73.542,15.377,70.29,12.125,66.292,12.125z"/>
				</g>
				<circle fill="#737C97" enable-background="new    " cx="64.875" cy="20.708" r="6.408"/>
			</g>
		</g>
		<g>
			<g>
				<g enable-background="new    ">
					<circle fill="#FFFFFF" cx="44.375" cy="19.375" r="7.75"/>
					<path fill="#737C97" d="M44.375,27.625c-4.549,0-8.25-3.701-8.25-8.25s3.701-8.25,8.25-8.25s8.25,3.701,8.25,8.25
						S48.924,27.625,44.375,27.625z M44.375,12.125c-3.998,0-7.25,3.252-7.25,7.25c0,3.998,3.252,7.25,7.25,7.25
						s7.25-3.252,7.25-7.25C51.625,15.377,48.373,12.125,44.375,12.125z"/>
				</g>
				<circle fill="#737C97" enable-background="new    " cx="42.958" cy="20.708" r="6.408"/>
			</g>
		</g>
		<g>
			<g>
				<g enable-background="new    ">
					<circle fill="#FFFFFF" cx="22.458" cy="19.375" r="7.75"/>
					<path fill="#737C97" d="M22.458,27.625c-4.549,0-8.25-3.701-8.25-8.25s3.701-8.25,8.25-8.25s8.25,3.701,8.25,8.25
						S27.007,27.625,22.458,27.625z M22.458,12.125c-3.998,0-7.25,3.252-7.25,7.25c0,3.998,3.252,7.25,7.25,7.25
						s7.25-3.252,7.25-7.25C29.708,15.377,26.456,12.125,22.458,12.125z"/>
				</g>
				<circle fill="#737C97" enable-background="new    " cx="21.042" cy="20.708" r="6.408"/>
			</g>
		</g>
	</g>
</g>
</svg>
