<?xml version="1.0" encoding="utf-8"?>
<!-- Generator: Adobe Illustrator 16.0.0, SVG Export Plug-In . SVG Version: 6.00 Build 0)  -->
<!DOCTYPE svg PUBLIC "-//W3C//DTD SVG 1.1//EN" "http://www.w3.org/Graphics/SVG/1.1/DTD/svg11.dtd">
<svg version="1.1" id="Layer_1" xmlns="http://www.w3.org/2000/svg" xmlns:xlink="http://www.w3.org/1999/xlink" x="0px" y="0px"
	 width="43px" height="17.875px" viewBox="0 0 43 17.875" enable-background="new 0 0 43 17.875" xml:space="preserve">
<title>robotisdream-illustration</title>
<desc>Created with Sketch.</desc>
<g id="robotisdream-illustration">
	<g id="robotisdream" transform="translate(2.000000, 2.000000)">
		<g enable-background="new    ">
			<path fill="#C7CFE2" d="M39.979,7.528c0,3.852-2.988,6.974-6.674,6.974H5.753c-3.687,0-6.675-3.122-6.675-6.974l0,0
				c0-3.851,2.988-6.973,6.675-6.973h27.552C36.99,0.555,39.979,3.677,39.979,7.528L39.979,7.528z"/>
			<path fill="#737C97" d="M33.305,14.875H5.753c-3.886,0-7.048-3.295-7.048-7.347c0-4.051,3.162-7.346,7.048-7.346h27.552
				c3.886,0,7.047,3.295,7.047,7.346C40.352,11.58,37.19,14.875,33.305,14.875z M5.753,0.928c-3.475,0-6.302,2.96-6.302,6.6
				s2.827,6.601,6.302,6.601h27.552c3.475,0,6.301-2.961,6.301-6.601s-2.826-6.6-6.301-6.6H5.753z"/>
		</g>
		<g enable-background="new    ">
			<path fill="#FFFFFF" d="M40.627,6.095c0,3.697-2.941,6.694-6.571,6.694H7.085c-3.629,0-6.571-2.997-6.571-6.694l0,0
				c0-3.697,2.941-6.694,6.571-6.694h26.97C37.686-0.6,40.627,2.397,40.627,6.095L40.627,6.095z"/>
			<path fill="#737C97" d="M34.056,13.162H7.085c-3.829,0-6.944-3.17-6.944-7.067c0-3.896,3.115-7.067,6.944-7.067h26.97
				C37.885-0.973,41,2.198,41,6.095C41,9.992,37.885,13.162,34.056,13.162z M7.085-0.227c-3.417,0-6.198,2.836-6.198,6.321
				s2.78,6.321,6.198,6.321h26.97c3.418,0,6.198-2.836,6.198-6.321s-2.78-6.321-6.198-6.321H7.085z"/>
		</g>
		<g>
			<g>
				<g enable-background="new    ">
					<circle fill="#FFFFFF" cx="31.578" cy="5.965" r="4.041"/>
					<path fill="#737C97" d="M31.578,10.266c-2.372,0-4.302-1.93-4.302-4.301c0-2.372,1.93-4.302,4.302-4.302
						c2.371,0,4.301,1.93,4.301,4.302C35.879,8.336,33.949,10.266,31.578,10.266z M31.578,2.185c-2.085,0-3.78,1.696-3.78,3.78
						c0,2.084,1.695,3.78,3.78,3.78c2.084,0,3.78-1.696,3.78-3.78C35.358,3.881,33.662,2.185,31.578,2.185z"/>
				</g>
				<circle fill="#737C97" enable-background="new    " cx="30.839" cy="6.66" r="3.341"/>
			</g>
		</g>
		<g>
			<g>
				<g enable-background="new    ">
					<circle fill="#FFFFFF" cx="20.151" cy="5.965" r="4.041"/>
					<path fill="#737C97" d="M20.15,10.266c-2.372,0-4.301-1.93-4.301-4.301c0-2.372,1.93-4.302,4.301-4.302
						c2.372,0,4.302,1.93,4.302,4.302C24.452,8.336,22.522,10.266,20.15,10.266z M20.15,2.185c-2.084,0-3.779,1.696-3.779,3.78
						c0,2.084,1.695,3.78,3.779,3.78c2.085,0,3.78-1.696,3.78-3.78C23.931,3.881,22.235,2.185,20.15,2.185z"/>
				</g>
				<circle fill="#737C97" enable-background="new    " cx="19.412" cy="6.66" r="3.341"/>
			</g>
		</g>
		<g>
			<g>
				<g enable-background="new    ">
					<circle fill="#FFFFFF" cx="8.724" cy="5.965" r="4.041"/>
					<path fill="#737C97" d="M8.724,10.266c-2.372,0-4.301-1.93-4.301-4.301c0-2.372,1.93-4.302,4.301-4.302
						c2.372,0,4.301,1.93,4.301,4.302C13.025,8.336,11.096,10.266,8.724,10.266z M8.724,2.185c-2.085,0-3.78,1.696-3.78,3.78
						c0,2.084,1.695,3.78,3.78,3.78c2.084,0,3.779-1.696,3.779-3.78C12.503,3.881,10.808,2.185,8.724,2.185z"/>
				</g>
				<circle fill="#737C97" enable-background="new    " cx="7.985" cy="6.66" r="3.341"/>
			</g>
		</g>
	</g>
</g>
</svg>
